<?xml version="1.0" encoding="utf-8"?>
<!-- Generator: Adobe Illustrator 16.0.0, SVG Export Plug-In . SVG Version: 6.00 Build 0)  -->
<!DOCTYPE svg PUBLIC "-//W3C//DTD SVG 1.1//EN" "http://www.w3.org/Graphics/SVG/1.1/DTD/svg11.dtd">
<svg version="1.1" id="Layer_1" xmlns="http://www.w3.org/2000/svg" xmlns:xlink="http://www.w3.org/1999/xlink" x="0px" y="0px"
	 width="100px" height="100px" viewBox="0 0 100 100" enable-background="new 0 0 100 100" xml:space="preserve">
<g>
	<path d="M50.25,26.521c-13.445,0-24.384,10.939-24.384,24.385S36.804,75.289,50.25,75.289s24.384-10.938,24.384-24.383
		S63.695,26.521,50.25,26.521z M50.25,72.966c-12.165,0-22.062-9.896-22.062-22.061c0-12.165,9.897-22.062,22.062-22.062
		s22.062,9.897,22.062,22.062C72.311,63.07,62.414,72.966,50.25,72.966z"/>
	<g>
		<path d="M44.909,64.525l-0.042-1.346l2.339-0.31c0.345-0.097,0.583-0.237,0.714-0.425c0.131-0.186,0.197-0.604,0.197-1.252v-0.229
			c0-0.164,0.01-0.465,0.031-0.899c0.02-0.435,0.031-0.817,0.031-1.149c0-0.262-0.021-0.766-0.062-1.511l0.031-1.034l-0.031-0.974
			l0.062-3.374c0-0.428-0.042-0.869-0.125-1.324c-0.153-0.207-0.431-0.387-0.833-0.539c-0.402-0.15-1.104-0.262-2.104-0.33v-1.16
			c1.421-0.082,2.67-0.379,3.747-0.89c0.731-0.331,1.524-0.917,2.38-1.759h1.387c0.055,1.711,0.083,3.932,0.083,6.664l-0.145,8.445
			c0,0.58,0.027,1.104,0.083,1.574c0.428,0.151,1.125,0.303,2.091,0.455c0.373,0.055,0.669,0.123,0.89,0.207l-0.042,1.139
			c-0.372,0.014-0.647,0.02-0.826,0.02c-0.207,0-0.523-0.014-0.95-0.041c-1.405-0.068-3.286-0.104-5.641-0.104
			c-0.675,0-1.329,0.024-1.962,0.072C45.577,64.501,45.143,64.525,44.909,64.525z M47.807,39.832c0-0.746,0.241-1.356,0.724-1.832
			c0.483-0.477,1.104-0.715,1.863-0.715c0.813,0,1.49,0.252,2.028,0.756s0.807,1.073,0.807,1.708c0,0.47-0.107,0.938-0.32,1.407
			c-0.215,0.47-0.552,0.846-1.015,1.128c-0.462,0.283-0.935,0.425-1.417,0.425c-0.662,0-1.273-0.283-1.832-0.849
			C48.086,41.294,47.807,40.618,47.807,39.832z"/>
	</g>
</g>
</svg>
