<?xml version="1.0" encoding="utf-8"?>
<!-- Generator: Adobe Illustrator 16.0.4, SVG Export Plug-In . SVG Version: 6.00 Build 0)  -->
<!DOCTYPE svg PUBLIC "-//W3C//DTD SVG 1.1//EN" "http://www.w3.org/Graphics/SVG/1.1/DTD/svg11.dtd">
<svg version="1.1" id="Layer_1" xmlns="http://www.w3.org/2000/svg" xmlns:xlink="http://www.w3.org/1999/xlink" x="0px" y="0px"
	 width="50px" height="50px" viewBox="0 0 50 50" enable-background="new 0 0 50 50" xml:space="preserve">
<path d="M41.282,19.449v-0.105c-0.011-2.465-0.209-4.973-1.591-6.61c-0.946-1.164-2.406-1.314-3.571-1.314
	c-0.476,0-0.951,0.029-1.41,0.057c-0.403,0.023-0.793,0.048-1.149,0.048h-0.164c-0.336-0.072-0.678-0.109-1.032-0.146
	c-0.317-0.035-0.644-0.068-0.99-0.137c-0.38-0.072-0.778-0.447-1.163-0.812c-0.225-0.211-0.443-0.414-0.666-0.573
	c-0.214-0.148-0.428-0.306-0.646-0.464C28.23,8.904,27.539,8.4,26.749,8.047c-0.964-0.416-2.034-0.553-3.069-0.686
	c-0.504-0.064-1.006-0.127-1.533-0.232c-0.262-0.024-0.53-0.055-0.803-0.086c-0.813-0.092-1.654-0.188-2.492-0.188
	c-0.569,0-1.069,0.045-1.571,0.145c-1.619,0.465-2.671,1.807-2.673,3.35c-0.842,0.339-1.596,1.039-2.07,1.939
	c-0.424,0.805-0.566,1.666-0.414,2.428c-1.602,1.047-2.427,3.01-1.98,4.693c-0.707,0.486-1.194,1.299-1.363,2.289
	c-0.234,1.373,0.189,2.83,1.086,3.719c1.17,1.117,2.797,1.388,4.232,1.626c0.225,0.039,0.448,0.076,0.635,0.107
	c0.195,0.051,0.4,0.098,0.611,0.146c1.913,0.445,3.268,0.881,3.271,2.447c0.004,1.033-0.337,1.988-0.695,3
	c-0.413,1.16-0.84,2.361-0.771,3.762c0.129,2.49,1.188,4.66,2.807,5.785c0.682,0.541,1.543,0.852,2.365,0.852
	c1.221,0,2.133-0.664,2.502-1.816c0.264-0.787,0.22-1.545,0.174-2.348c-0.012-0.199-0.023-0.402-0.031-0.615
	c-0.045-1.102,0.086-2.016,0.413-2.889c0.606-1.715,1.837-3.324,2.845-4.539l0.543-0.684c0.767-0.969,1.558-1.971,2.438-2.754
	c0.463-0.367,0.933-0.496,1.541-0.627c0.17-0.008,0.319-0.055,0.444-0.092c0.078-0.025,0.168-0.055,0.222-0.057
	c0.59,0.049,1.223,0.092,1.877,0.092c1.272,0,3.114-0.146,4.403-1.388C41.311,23.988,41.294,21.255,41.282,19.449z M34.773,19.628
	l-0.002,0.293c-0.016,1.228-0.032,2.752-0.653,3.854c-0.32,0.537-0.94,0.653-1.654,0.789c-0.998,0.161-1.778,0.485-2.509,1.044
	c-0.1,0.035-0.209,0.109-0.296,0.264c-0.298,0.201-0.543,0.5-0.746,0.75c-1.201,1.301-2.285,2.637-3.14,3.867
	c-0.194,0.289-0.395,0.574-0.592,0.855c-0.906,1.295-1.844,2.635-2.244,4.291c-0.282,1.209-0.256,2.26-0.192,3.506l0.01,0.188
	c0.048,0.76,0.06,1.574-0.36,1.635c-0.035,0.006-0.071,0.008-0.106,0.008c-0.696,0-1.571-0.873-2.067-1.648
	c-0.563-1.064-0.848-2.145-0.818-3.119c0.029-1.014,0.359-1.973,0.709-2.99c0.412-1.199,0.841-2.441,0.742-3.799
	c-0.141-1.84-1.604-3.432-3.641-3.961c-0.596-0.156-1.225-0.26-1.834-0.357c-1.137-0.186-2.311-0.377-3.291-0.926
	c-0.604-0.301-1.27-0.961-1.15-1.838c0.056-0.465,0.271-1.045,1.033-1.188c0.34-0.099,0.598-0.326,0.723-0.644
	c0.15-0.383,0.095-0.856-0.205-1.34c-0.206-0.236-0.247-0.883-0.098-1.426c0.213-0.685,0.701-1.158,1.455-1.412
	c0.32-0.039,0.607-0.262,0.767-0.603c0.179-0.387,0.139-0.807-0.08-1.059c-0.24-0.342-0.2-1.027,0.094-1.596
	c0.231-0.449,0.563-0.72,0.888-0.72c0.045,0,0.092,0.007,0.137,0.017l0.052,0.01h0.052c0.396,0,0.911-0.176,1.167-0.568
	c0.169-0.258,0.192-0.573,0.075-0.84c-0.169-0.448-0.152-0.932,0.045-1.258c0.143-0.236,0.367-0.375,0.739-0.428
	c0.475-0.129,1.015-0.129,1.493-0.131c1.598,0.143,3.25,0.291,4.816,0.575c0,0,1.569,0.351,1.823,0.404
	c0.663,0.312,1.301,0.795,1.917,1.262c0.203,0.154,0.402,0.306,0.587,0.438c0.158,0.123,0.313,0.271,0.474,0.422
	c0.405,0.383,0.86,0.812,1.428,0.967c0.494,0.306,1.018,0.326,1.424,0.326c0.031,0,0.062,0,0.093,0
	c1.529,0.142,2.231,0.676,2.593,1.978C34.782,16.833,34.793,18.33,34.773,19.628z M38.143,23.796
	c-0.533,0.453-1.232,0.642-1.914,0.715c0.362-0.733,0.521-1.561,0.623-2.315c0.237-1.726,0.26-3.539,0.062-5.396
	c-0.115-1.018-0.301-2.141-0.775-3.104h0.092c0.84,0,1.457,0.037,1.771,0.518c0.914,1.324,1.032,3.248,1.023,5.131l0.002,0.482
	C39.037,21.101,39.055,23.033,38.143,23.796z"/>
</svg>
