<?xml version="1.0" encoding="utf-8"?>
<!-- Generator: Adobe Illustrator 17.0.0, SVG Export Plug-In . SVG Version: 6.00 Build 0)  -->
<!DOCTYPE svg PUBLIC "-//W3C//DTD SVG 1.1//EN" "http://www.w3.org/Graphics/SVG/1.1/DTD/svg11.dtd">
<svg version="1.1" id="Capa_1" xmlns="http://www.w3.org/2000/svg" xmlns:xlink="http://www.w3.org/1999/xlink" x="0px" y="0px"
	 width="64px" height="64px" viewBox="0 0 64 64" enable-background="new 0 0 64 64" xml:space="preserve">
<g id="Favoritos_-_Gris">
</g>
<g id="Juegos_-_Naranja">
</g>
<g id="Comprobar_-_Naranja">
</g>
<g id="Música-_Gris">
</g>
<g id="Herramientas_-_Gris">
</g>
<g id="Carro_de_la_compra_-_Naranja">
</g>
<g id="Calendario_-_Gris">
</g>
<g id="Música-_Gris_1_">
</g>
<g id="Inicio_-_Gris">
</g>
<g id="Flecha_5">
</g>
<g>
	<circle cx="32" cy="32" r="3.618"/>
	<path d="M32,4.333C16.72,4.333,4.333,16.72,4.333,32S16.72,59.667,32,59.667c15.28,0,27.667-12.387,27.667-27.667
		S47.28,4.333,32,4.333z M21.451,11.214C24.618,9.604,28.203,8.696,32,8.696c0.223,0,0.444,0.003,0.665,0.009
		c0.367,0.01,0.619,0.922,0.564,2.025l-0.282,5.677c-0.055,1.103-0.289,1.986-0.523,1.979C32.283,18.382,32.142,18.38,32,18.38
		c-1.997,0-3.894,0.43-5.603,1.202c-1.007,0.455-2.212,0.184-2.774-0.767l-2.896-4.897C20.165,12.967,20.466,11.715,21.451,11.214z
		 M20.319,21.628l-4.278-3.742c-0.832-0.727-0.918-1.994-0.119-2.756c0.019-0.018,0.037-0.035,0.057-0.053
		c0.802-0.76,2.059-0.605,2.737,0.266l3.494,4.484c0.679,0.871,0.837,1.889,0.391,2.314C22.154,22.568,21.151,22.355,20.319,21.628z
		 M22.21,32c0-5.407,4.383-9.79,9.79-9.79c5.407,0,9.79,4.383,9.79,9.79s-4.383,9.79-9.79,9.79C26.593,41.79,22.21,37.407,22.21,32z
		 M42.503,52.809c-3.156,1.596-6.725,2.495-10.503,2.495c-0.248,0-0.495-0.004-0.741-0.011c-0.409-0.013-0.692-0.929-0.632-2.032
		l0.31-5.676c0.061-1.103,0.322-1.981,0.586-1.972c0.158,0.005,0.317,0.008,0.477,0.008c1.834,0,3.582-0.362,5.179-1.018
		c1.022-0.42,2.275-0.144,2.877,0.782l3.101,4.77C43.759,51.08,43.489,52.31,42.503,52.809z M47.952,48.989
		c-0.766,0.72-2.005,0.551-2.703-0.305l-3.59-4.407c-0.698-0.856-0.876-1.848-0.435-2.255c0.442-0.407,1.443-0.179,2.274,0.549
		l4.28,3.744C48.61,47.042,48.719,48.269,47.952,48.989z"/>
</g>
<g id="RSS">
</g>
<g id="Instalaciones_de_reciclado">
</g>
<g id="Aeropuerto">
</g>
</svg>
